<svg width="32" height="32" viewBox="0 0 32 32" fill="none" xmlns="http://www.w3.org/2000/svg">
<path d="M3 2.2801C3 1.02083 4.02083 0 5.2801 0H12.843C21.2587 0 28.0811 6.82233 28.0811 15.2381V15.2381C28.0811 24.4954 20.5765 32 11.3192 32H5.09009C3.93577 32 3 31.0642 3 29.9099V2.2801Z" fill="#62D84E"/>
<path fill-rule="evenodd" clip-rule="evenodd" d="M27.3568 10.5827C27.6917 11.6275 27.9169 12.7215 28.0188 13.851L20.5 11L18 9L27.3568 10.5827Z" fill="black" fill-opacity="0.2"/>
<path fill-rule="evenodd" clip-rule="evenodd" d="M17 0.573914C22.1278 2.02467 26.1565 6.09253 27.5521 11.2432H22C19.2386 11.2432 17 9.00465 17 6.24323V0.573914Z" fill="black"/>
</svg>
