<svg width="26" height="30" viewBox="0 0 26 30" fill="none" xmlns="http://www.w3.org/2000/svg">
<circle cx="8.27555" cy="26.7537" r="3.24638" fill="black"/>
<circle cx="17.5506" cy="26.7537" r="3.24638" fill="#62D84E"/>
<path fill-rule="evenodd" clip-rule="evenodd" d="M13.0001 5C10.9592 5 9.1392 5.93765 7.9435 7.41528C7.07497 8.4886 5.50079 8.65462 4.42747 7.78609C3.35415 6.91756 3.18813 5.34337 4.05666 4.27005C6.16088 1.66968 9.38641 0 13.0001 0C16.6138 0 19.8393 1.66968 21.9435 4.27005C22.812 5.34337 22.646 6.91756 21.5727 7.78609C20.4994 8.65462 18.9252 8.4886 18.0567 7.41528C16.861 5.93765 15.0409 5 13.0001 5Z" fill="black"/>
<path fill-rule="evenodd" clip-rule="evenodd" d="M0 10C0 17.1797 5.8203 23 13 23C20.1797 23 26 17.1797 26 10H0Z" fill="black"/>
<path fill-rule="evenodd" clip-rule="evenodd" d="M22 10C17.0294 10 13 14.0294 13 19V23C20.1797 23 26 17.1797 26 10H22Z" fill="#62D84E"/>
</svg>
