<svg width="32" height="32" viewBox="0 0 32 32" fill="none" xmlns="http://www.w3.org/2000/svg">
<path fill-rule="evenodd" clip-rule="evenodd" d="M15.9996 25.0798C11.2508 25.0798 8.00008 21.654 8.00008 17.4166C8.00008 13.1767 11.2508 9.69236 15.9996 9.69236C20.751 9.69236 23.9992 13.1767 23.9992 17.4166C23.9992 21.654 20.751 25.0798 15.9996 25.0798ZM16.0932 2.00025C7.32577 1.95196 0.0745969 8.82471 0.000539131 17.2572C-0.0371394 21.72 1.90265 25.7495 5.02607 28.584C6.16292 29.6135 7.91951 29.7143 9.15251 28.7919C10.9741 27.4301 13.3114 26.6184 15.9996 26.6184C18.6878 26.6184 21.0264 27.4313 22.848 28.7919C24.0914 29.7218 25.8558 29.6023 26.9978 28.5616C30.0771 25.757 32 21.7872 32 17.3867C32 8.91932 24.8853 2.04781 16.0932 2.00025Z" fill="#62D84E"/>
</svg>
