<?xml version="1.0" encoding="UTF-8"?>
<svg width="43px" height="41px" viewBox="0 0 43 41" version="1.1" xmlns="http://www.w3.org/2000/svg" xmlns:xlink="http://www.w3.org/1999/xlink">
    <!-- Generator: Sketch 63.1 (92452) - https://sketch.com -->
    <title>Group 4</title>
    <desc>Created with Sketch.</desc>
    <g id="Page-1" stroke="none" stroke-width="1" fill="none" fill-rule="evenodd">
        <g id="Group-4">
            <path d="M33,17 C27.48276,17 23,21.28571 23,26.6 C23,30.88572 26.10345,34.657143 30.41379,35.857143 C31.27586,36.028572 31.96552,36.714285 31.96552,37.571429 C31.96552,39.97143 31.96552,39.97143 31.96552,39.97143 C31.96552,40.4857139 32.13793,40.8285707 32.65517,41 C32.82759,41 32.82759,41 33,41 C33.34483,41 33.51724,40.8285707 33.68966,40.6571436 C40.41379,33.114285 40.41379,33.114285 40.41379,33.114285 C42.13793,31.228572 43,29 43,26.6 C43,21.28571 38.51724,17 33,17 Z" id="Fill-1" fill="#81B5A0"></path>
            <path d="M26.5,4.34783 C23.16667,1.3913 19,-1.33226763e-15 14.5,0.52174 C7.666667,1.21739 2.166667,6.95652 1,14.08696 C0,19.47826 1.5,24.69565 4.833333,28.69565 C4.833333,28.69565 4.833333,28.69565 4.833333,28.86956 C16.33333,39.652173 16.33333,39.652173 16.33333,39.652173 C16.5,39.826088 16.66667,40 17,40 C17.16667,40 17.16667,40 17.33333,39.826088 C17.66667,39.826088 18,39.304349 18,38.956521 C18,35.826088 18,35.826088 18,35.826088 C18,34.956521 18.5,34.086957 19.16667,34.086957 C26.83333,32.869565 32,25.91304 32,17.21739 C32,12.34783 30,7.65217 26.5,4.34783 Z M19,32 C17.16667,32.173913 16,33.913044 16,35.826088 C16,36.52174 16,36.52174 16,36.52174 C6.333334,27.30435 6.333334,27.30435 6.333334,27.30435 C3.333333,23.82609 2.166667,19.13043 2.833333,14.43478 C4,8.17391 8.833334,3.30435 14.66667,2.6087 C18.66667,2.08696 22.33333,3.30435 25.16667,5.91304 C28.33333,8.86957 30,12.86957 30,17.21739 C30,24.86956 25.5,30.95652 19,32 Z" id="Fill-2" fill="#293E40"></path>
            <path d="M21.97368,16.89474 C17.52632,16.89474 17.52632,16.89474 17.52632,16.89474 C17.52632,12.10526 17.52632,12.10526 17.52632,12.10526 C17.52632,11.55263 17.01316,11 16.5,11 C15.98684,11 15.47368,11.55263 15.47368,12.10526 C15.47368,16.89474 15.47368,16.89474 15.47368,16.89474 C11.02632,16.89474 11.02632,16.89474 11.02632,16.89474 C10.51316,16.89474 10,17.44737 10,18 C10,18.55263 10.51316,19.10526 11.02632,19.10526 C15.47368,19.10526 15.47368,19.10526 15.47368,19.10526 C15.47368,23.89474 15.47368,23.89474 15.47368,23.89474 C15.47368,24.44737 15.98684,25 16.5,25 C17.01316,25 17.52632,24.44737 17.52632,23.89474 C17.52632,19.10526 17.52632,19.10526 17.52632,19.10526 C21.97368,19.10526 21.97368,19.10526 21.97368,19.10526 C22.48684,19.10526 23,18.55263 23,18 C23,17.44737 22.48684,16.89474 21.97368,16.89474 Z" id="Fill-3" fill="#293E40"></path>
        </g>
    </g>
</svg>