<svg width="32" height="32" viewBox="0 0 32 32" fill="none" xmlns="http://www.w3.org/2000/svg">
<circle cx="9.85221" cy="9.85124" r="5.02091" fill="black"/>
<circle cx="21.9272" cy="9.85124" r="5.02091" fill="#62D84E"/>
<path d="M8.27852 15.8285C6.62457 15.5922 2.07621 15.7301 0.00877841 15.8285C-0.0896709 17.8959 0.599474 22.9758 4.14365 26.7563C7.68782 30.5368 12.4191 31.9995 15.9996 31.9995V24.1507C15.9996 18.8344 10.346 16.1239 8.27852 15.8285Z" fill="black"/>
<path d="M23.7216 15.8285C25.3756 15.5922 29.9239 15.7301 31.9913 15.8285C32.0898 17.8959 31.4006 22.9758 27.8565 26.7563C24.3123 30.5368 19.581 31.9995 16.0005 31.9995V24.1507C16.0005 18.8344 21.6542 16.1239 23.7216 15.8285Z" fill="#62D84E"/>
</svg>
