<svg width="32" height="32" viewBox="0 0 32 32" fill="none" xmlns="http://www.w3.org/2000/svg">
<g clip-path="url(#clip0_479_834)">
<path fill-rule="evenodd" clip-rule="evenodd" d="M1.23224 18.2322C0.255934 17.2559 0.255934 15.673 1.23224 14.6967L9.69671 6.23224C10.673 5.25593 12.2559 5.25593 13.2322 6.23224C14.2086 7.20855 14.2086 8.79147 13.2322 9.76778L4.76778 18.2322C3.79147 19.2086 2.20856 19.2086 1.23224 18.2322Z" fill="black"/>
<path fill-rule="evenodd" clip-rule="evenodd" d="M30.7678 18.2322C31.7441 17.2559 31.7441 15.673 30.7678 14.6967L22.3033 6.23224C21.327 5.25593 19.7441 5.25593 18.7678 6.23224C17.7914 7.20855 17.7914 8.79147 18.7678 9.76778L27.2322 18.2322C28.2085 19.2086 29.7914 19.2086 30.7678 18.2322Z" fill="#62D84E"/>
<path fill-rule="evenodd" clip-rule="evenodd" d="M1.23224 14.7678C0.255934 15.7441 0.255934 17.327 1.23224 18.3033L9.69671 26.7678C10.673 27.7441 12.2559 27.7441 13.2322 26.7678C14.2086 25.7914 14.2086 24.2085 13.2322 23.2322L4.76778 14.7678C3.79147 13.7914 2.20856 13.7914 1.23224 14.7678Z" fill="#62D84E"/>
<path fill-rule="evenodd" clip-rule="evenodd" d="M30.7678 14.7678C31.7441 15.7441 31.7441 17.327 30.7678 18.3033L22.3033 26.7678C21.327 27.7441 19.7441 27.7441 18.7678 26.7678C17.7914 25.7914 17.7914 24.2085 18.7678 23.2322L27.2322 14.7678C28.2085 13.7914 29.7914 13.7914 30.7678 14.7678Z" fill="black"/>
<circle cx="16" cy="16" r="4" fill="black"/>
</g>
<defs>
<clipPath id="clip0_479_834">
<rect width="32" height="32" fill="white"/>
</clipPath>
</defs>
</svg>
