<svg width="138" height="40" viewBox="0 0 138 40" fill="none" xmlns="http://www.w3.org/2000/svg">
<path fill-rule="evenodd" clip-rule="evenodd" d="M22.1851 26.1851L25.6066 29.6066C22.8921 32.3211 19.1421 34 15 34C6.71573 34 0 27.2843 0 19C0 14.8578 1.67893 11.1078 4.3934 8.39336L7.81488 11.8148C5.97605 13.6537 4.83871 16.194 4.83871 19C4.83871 20.2604 5.0682 21.4672 5.48767 22.581C6.04137 20.5184 7.92401 19 10.1613 19C12.8336 19 15 21.1664 15 23.8387C15 26.076 13.4816 27.9586 11.4191 28.5124C12.5328 28.9318 13.7396 29.1613 15 29.1613C17.806 29.1613 20.3463 28.0239 22.1851 26.1851Z" fill="black"/>
<path fill-rule="evenodd" clip-rule="evenodd" d="M15 4C10.8578 4 7.10784 5.67893 4.39337 8.39341L7.81486 11.8149C9.65369 9.97606 12.194 8.83872 15 8.83872C16.2604 8.83872 17.4672 9.0682 18.5809 9.48767C16.5184 10.0414 15 11.924 15 14.1613C15 16.8337 17.1663 19 19.8387 19C22.076 19 23.9586 17.4816 24.5123 15.4191C24.9318 16.5328 25.1613 17.7396 25.1613 19C25.1613 21.806 24.0239 24.3463 22.1851 26.1852L25.6066 29.6066C28.321 26.8922 30 23.1422 30 19C30 10.7157 23.2842 4 15 4Z" fill="#62D84E"/>
<path d="M49.188 35.308C52.466 35.308 54.776 33.548 54.776 30.666C54.776 27.52 52.18 26.706 49.738 25.936C47.406 25.232 46.812 24.726 46.812 23.78C46.812 22.9 47.56 22.24 48.836 22.24C50.398 22.24 51.234 23.054 51.784 24.22L54.336 22.746C53.302 20.59 51.366 19.292 48.836 19.292C46.196 19.292 43.776 20.964 43.776 23.868C43.776 26.794 46.064 27.784 48.418 28.466C50.706 29.126 51.74 29.566 51.74 30.71C51.74 31.568 51.102 32.338 49.276 32.338C47.362 32.338 46.284 31.414 45.734 29.984L43.138 31.502C43.974 33.79 46.042 35.308 49.188 35.308Z" fill="black"/>
<path d="M63.8842 24V29.94C63.8842 31.854 62.8502 32.668 61.4642 32.668C60.1882 32.668 59.2862 31.898 59.2862 30.402V24H56.4482V30.754C56.4482 33.68 58.2742 35.308 60.6062 35.308C62.0802 35.308 63.2242 34.758 63.8842 33.768V35H66.7222V24H63.8842Z" fill="black"/>
<path d="M75.7234 23.692C74.1174 23.692 72.9514 24.286 72.1594 25.298V24H69.3214V39.4H72.1594V33.702C72.9514 34.714 74.1174 35.308 75.7234 35.308C78.6714 35.308 81.0914 32.778 81.0914 29.5C81.0914 26.222 78.6714 23.692 75.7234 23.692ZM75.1954 32.602C73.4574 32.602 72.1594 31.348 72.1594 29.5C72.1594 27.652 73.4574 26.398 75.1954 26.398C76.9554 26.398 78.2534 27.652 78.2534 29.5C78.2534 31.348 76.9554 32.602 75.1954 32.602Z" fill="black"/>
<path d="M89.4949 23.692C87.8889 23.692 86.7229 24.286 85.9309 25.298V24H83.0929V39.4H85.9309V33.702C86.7229 34.714 87.8889 35.308 89.4949 35.308C92.4429 35.308 94.8629 32.778 94.8629 29.5C94.8629 26.222 92.4429 23.692 89.4949 23.692ZM88.9669 32.602C87.2289 32.602 85.9309 31.348 85.9309 29.5C85.9309 27.652 87.2289 26.398 88.9669 26.398C90.7269 26.398 92.0249 27.652 92.0249 29.5C92.0249 31.348 90.7269 32.602 88.9669 32.602Z" fill="black"/>
<path d="M102.1 35.308C105.334 35.308 107.93 32.778 107.93 29.5C107.93 26.222 105.334 23.692 102.1 23.692C98.8664 23.692 96.2924 26.222 96.2924 29.5C96.2924 32.778 98.8664 35.308 102.1 35.308ZM102.1 32.536C100.428 32.536 99.1304 31.282 99.1304 29.5C99.1304 27.718 100.428 26.464 102.1 26.464C103.794 26.464 105.092 27.718 105.092 29.5C105.092 31.282 103.794 32.536 102.1 32.536Z" fill="black"/>
<path d="M112.765 25.892V24H109.927V35H112.765V29.742C112.765 27.432 114.635 26.772 116.109 26.948V23.78C114.723 23.78 113.337 24.396 112.765 25.892Z" fill="black"/>
<path d="M124.361 26.728V24H121.875V20.92L119.037 21.778V24H117.123V26.728H119.037V31.304C119.037 34.274 120.379 35.44 124.361 35V32.426C122.733 32.514 121.875 32.492 121.875 31.304V26.728H124.361Z" fill="black"/>
<path fill-rule="evenodd" clip-rule="evenodd" d="M61.5336 7.77055C60.7581 7.77055 60.0837 8.0403 59.5105 8.47864V7.83799H57.6897V14.9525H59.5779V10.4006C59.8477 10.0297 60.4883 9.5239 61.2976 9.5239C61.601 9.5239 61.837 9.55762 62.0731 9.62506V7.80427C61.9045 7.77055 61.7022 7.77055 61.5336 7.77055Z" fill="black"/>
<path fill-rule="evenodd" clip-rule="evenodd" d="M44.9104 12.7948C45.3824 13.2331 46.1243 13.5028 46.8661 13.5028C47.3718 13.5028 47.7764 13.2668 47.7764 12.8959C47.7764 11.8169 44.3372 12.2216 44.3372 9.89499C44.3372 8.51254 45.6522 7.66959 47.0684 7.66959C47.9788 7.66959 48.9903 8.00677 49.4624 8.37767L48.5857 9.76012C48.2148 9.49037 47.7427 9.28806 47.237 9.28806C46.6975 9.28806 46.2591 9.49037 46.2591 9.86127C46.2591 10.7717 49.6984 10.4345 49.6984 12.8959C49.6984 14.2784 48.3497 15.0876 46.8661 15.0876C45.8882 15.0876 44.843 14.7504 44 14.1435L44.9104 12.7948Z" fill="black"/>
<path fill-rule="evenodd" clip-rule="evenodd" d="M56.8807 11.3447C56.8807 9.35535 55.4982 7.70316 53.5426 7.70316C51.4183 7.70316 50.0696 9.42279 50.0696 11.4122C50.0696 13.6376 51.6543 15.1212 53.7786 15.1212C54.8913 15.1212 56.004 14.6491 56.6784 13.8399L55.5994 12.7609C55.2622 13.1318 54.6215 13.5701 53.8123 13.5701C52.8008 13.5701 51.9915 12.8958 51.8904 11.8842H56.8132C56.847 11.7156 56.8807 11.547 56.8807 11.3447ZM51.9915 10.5018C52.0927 9.86112 52.7333 9.2542 53.5088 9.2542C54.2844 9.2542 54.8576 9.86112 54.925 10.5018H51.9915Z" fill="black"/>
<path fill-rule="evenodd" clip-rule="evenodd" d="M66.6248 12.1878L68.5468 7.83818H70.5362L67.2655 14.9865H65.9505L62.6798 7.83818H64.6692L66.6248 12.1878Z" fill="black"/>
<path fill-rule="evenodd" clip-rule="evenodd" d="M72.1547 4.5C72.8291 4.5 73.4023 5.03949 73.4023 5.71386C73.4023 6.38822 72.8291 6.92772 72.1547 6.92772C71.4804 6.92772 70.9072 6.38822 70.9072 5.71386C70.9072 5.03949 71.4467 4.5 72.1547 4.5Z" fill="black"/>
<path d="M73.0651 7.83818H71.1769V14.9527H73.0651V7.83818Z" fill="black"/>
<path fill-rule="evenodd" clip-rule="evenodd" d="M80.955 13.5027C80.1121 14.6154 79.0668 15.1212 77.7181 15.1212C75.5264 15.1212 73.9079 13.469 73.9079 11.4122C73.9079 9.35535 75.5601 7.70316 77.7181 7.70316C78.9319 7.70316 80.0446 8.27637 80.719 9.11932L79.3703 10.2995C78.9994 9.79369 78.4261 9.45651 77.7181 9.45651C76.6054 9.45651 75.7961 10.3332 75.7961 11.4122C75.7961 12.5249 76.6054 13.3678 77.7518 13.3678C78.5273 13.3678 79.1342 12.8958 79.4377 12.4237L80.955 13.5027Z" fill="black"/>
<path fill-rule="evenodd" clip-rule="evenodd" d="M87.8677 13.8399C87.1933 14.6491 86.0469 15.1212 84.9679 15.1212C82.8437 15.1212 81.2589 13.6376 81.2589 11.4122C81.2589 9.42279 82.6076 7.70316 84.7319 7.70316C86.6876 7.70316 88.07 9.35535 88.07 11.3447C88.07 11.547 88.07 11.7156 88.0363 11.8842H83.1134C83.2146 12.8958 84.0238 13.5701 85.0354 13.5701C85.8446 13.5701 86.4852 13.0981 86.8224 12.7609L87.8677 13.8399ZM86.1143 10.5018C86.0469 9.86112 85.4737 9.2542 84.6982 9.2542C83.9227 9.2542 83.2483 9.86112 83.1809 10.5018H86.1143Z" fill="black"/>
<path fill-rule="evenodd" clip-rule="evenodd" d="M88.8118 14.9863V7.83803H90.6326V8.41124C91.1721 7.9729 91.8465 7.70316 92.6557 7.70316C93.6335 7.70316 94.5439 8.14149 95.1171 8.84958C95.5892 9.42279 95.859 10.1309 95.859 11.3447V14.9863H93.9707V11.2099C93.9707 10.5018 93.8021 10.1309 93.5324 9.86113C93.2964 9.6251 92.8917 9.45651 92.4534 9.45651C91.6442 9.45651 91.0035 9.96228 90.7338 10.3332V14.9526H88.8118V14.9863Z" fill="black"/>
<path fill-rule="evenodd" clip-rule="evenodd" d="M100.748 7.70316C98.4887 7.70316 96.6004 9.55766 96.5667 11.8505C96.5667 13.0644 97.0725 14.1433 97.8817 14.9189C98.1852 15.1886 98.6235 15.2223 98.9607 14.9863C99.4328 14.6154 100.04 14.4131 100.748 14.4131C101.456 14.4131 102.063 14.6491 102.535 14.9863C102.872 15.2223 103.31 15.2223 103.614 14.9189C104.423 14.1433 104.895 13.0981 104.895 11.8842C104.861 9.55766 103.041 7.70316 100.748 7.70316ZM100.714 13.941C99.4665 13.941 98.6235 12.9969 98.6235 11.8505C98.6235 10.7041 99.4665 9.75997 100.714 9.75997C101.962 9.75997 102.805 10.7041 102.805 11.8505C102.805 13.0306 101.962 13.941 100.714 13.941Z" fill="black"/>
<path fill-rule="evenodd" clip-rule="evenodd" d="M108.638 14.9865H107.222L104.389 7.83818H106.311L107.862 11.9181L109.38 7.83818H110.964L112.482 11.9181L114.033 7.83818H115.921L113.089 14.9865H111.672L110.155 10.9065L108.638 14.9865Z" fill="black"/>
</svg>
