<svg width="32" height="32" viewBox="0 0 32 32" fill="none" xmlns="http://www.w3.org/2000/svg">
<circle cx="16" cy="16" r="5" fill="black"/>
<path fill-rule="evenodd" clip-rule="evenodd" d="M26.9602 26.9601L23.4246 23.4246C21.5245 25.3247 18.8995 26.5 16 26.5C10.201 26.5 5.5 21.7989 5.5 16C5.5 13.1005 6.67525 10.4755 8.57538 8.57533L5.03984 5.03979C2.2349 7.84474 0.5 11.7197 0.5 16C0.5 24.5604 7.43959 31.5 16 31.5C20.2802 31.5 24.1552 29.7651 26.9602 26.9601Z" fill="black"/>
<path fill-rule="evenodd" clip-rule="evenodd" d="M5.03979 5.03984C7.84474 2.2349 11.7197 0.5 16 0.5C24.5604 0.5 31.5 7.43959 31.5 16C31.5 20.2802 29.7651 24.1552 26.9601 26.9602L23.4246 23.4246C25.3247 21.5245 26.5 18.8995 26.5 16C26.5 10.201 21.7989 5.5 16 5.5C13.1005 5.5 10.4755 6.67525 8.57533 8.57538L5.03979 5.03984Z" fill="#62D84E"/>
</svg>
