<svg width="32" height="32" viewBox="0 0 32 32" fill="none" xmlns="http://www.w3.org/2000/svg">
<g clip-path="url(#clip0_461_812)">
<circle cx="16" cy="9.00003" r="4" fill="black"/>
<path fill-rule="evenodd" clip-rule="evenodd" d="M15.6917 5.5111C13.374 5.57476 11.2589 6.38173 9.55894 7.69822C8.46729 8.54359 6.89702 8.34395 6.05164 7.2523C5.20626 6.16065 5.4059 4.59038 6.49756 3.745C9.00834 1.80064 12.1406 0.606758 15.5544 0.512981C19.4258 0.406638 23.0101 1.7323 25.7896 4.00594C26.8583 4.88014 27.016 6.45518 26.1418 7.52388C25.2676 8.59259 23.6926 8.75028 22.6239 7.87608C20.7387 6.33405 18.3174 5.43897 15.6917 5.5111Z" fill="black"/>
<circle cx="21.9662" cy="19.3339" r="4" transform="rotate(120 21.9662 19.3339)" fill="#62D84E"/>
<path fill-rule="evenodd" clip-rule="evenodd" d="M25.1419 20.8114C26.2457 18.7724 26.6043 16.5372 26.3142 14.4067C26.1279 13.0386 27.086 11.7785 28.454 11.5922C29.8221 11.406 31.0822 12.364 31.2685 13.7321C31.697 16.8787 31.1648 20.1882 29.5391 23.1916C27.6955 26.5974 24.7553 29.0387 21.3965 30.309C20.1051 30.7975 18.6622 30.1465 18.1738 28.8551C17.6853 27.5636 18.3363 26.1208 19.6277 25.6323C21.9057 24.7708 23.8916 23.1214 25.1419 20.8114Z" fill="#62D84E"/>
<circle cx="10.0337" cy="19.334" r="4" transform="rotate(-120 10.0337 19.334)" fill="black"/>
<path fill-rule="evenodd" clip-rule="evenodd" d="M7.16622 21.3454C8.38022 23.3207 10.1366 24.749 12.1267 25.563C13.4047 26.0857 14.0169 27.5454 13.4942 28.8233C12.9715 30.1013 11.5118 30.7135 10.2338 30.1908C7.29456 28.9886 4.69452 26.8729 2.90638 23.9633C0.87861 20.6638 0.234502 16.8969 0.813768 13.3529C1.03649 11.9903 2.32167 11.0662 3.6843 11.2889C5.04693 11.5117 5.97101 12.7968 5.74829 14.1595C5.35542 16.5631 5.79093 19.1076 7.16622 21.3454Z" fill="black"/>
</g>
<defs>
<clipPath id="clip0_461_812">
<rect width="32" height="32" fill="white"/>
</clipPath>
</defs>
</svg>
