<svg width="32" height="32" viewBox="0 0 32 32" fill="none" xmlns="http://www.w3.org/2000/svg">
<path fill-rule="evenodd" clip-rule="evenodd" d="M23.4246 23.4246L26.9602 26.9601C24.1552 29.7651 20.2802 31.5 16 31.5C7.43959 31.5 0.5 24.5604 0.5 16C0.5 11.7197 2.2349 7.84474 5.03984 5.03979L8.57538 8.57533C6.67525 10.4755 5.5 13.1005 5.5 16C5.5 17.3024 5.73714 18.5494 6.17059 19.7003C6.74275 17.569 8.68814 16 11 16C13.7614 16 16 18.2386 16 21C16 23.3118 14.431 25.2572 12.2998 25.8294C13.4506 26.2628 14.6976 26.5 16 26.5C18.8995 26.5 21.5245 25.3247 23.4246 23.4246Z" fill="black"/>
<path fill-rule="evenodd" clip-rule="evenodd" d="M16 0.5C11.7197 0.5 7.84474 2.2349 5.03979 5.03984L8.57533 8.57538C10.4755 6.67525 13.1005 5.5 16 5.5C17.3024 5.5 18.5494 5.73714 19.7003 6.17059C17.569 6.74273 16 8.68813 16 11C16 13.7614 18.2385 16 21 16C23.3118 16 25.2572 14.431 25.8294 12.2997C26.2628 13.4505 26.5 14.6976 26.5 16C26.5 18.8995 25.3247 21.5245 23.4246 23.4246L26.9601 26.9602C29.7651 24.1552 31.5 20.2802 31.5 16C31.5 7.43959 24.5604 0.5 16 0.5Z" fill="#62D84E"/>
</svg>
